<svg width="16" height="16" viewBox="0 0 16 16" fill="none" xmlns="http://www.w3.org/2000/svg">
<path d="M14.5725 8.38138C14.8678 7.99115 15.0312 7.51302 15.0312 7.01556C15.0312 6.22631 14.59 5.47924 13.8799 5.06263C13.6971 4.9554 13.4889 4.89896 13.277 4.89916H9.06172L9.16719 2.73881C9.1918 2.21674 9.00723 1.72103 8.64863 1.3431C8.47265 1.15683 8.26034 1.00861 8.02481 0.907633C7.78929 0.80665 7.53556 0.755041 7.2793 0.755994C6.36523 0.755994 5.55664 1.37123 5.31406 2.25189L3.8041 7.71869H3.79883V15.2421H12.101C12.2627 15.2421 12.4209 15.2105 12.5668 15.1472C13.4035 14.7904 13.9432 13.973 13.9432 13.066C13.9432 12.8445 13.9115 12.6265 13.8482 12.4156C14.1436 12.0253 14.307 11.5472 14.307 11.0497C14.307 10.8283 14.2754 10.6103 14.2121 10.3994C14.5074 10.0091 14.6709 9.53099 14.6709 9.03353C14.6674 8.81205 14.6357 8.59232 14.5725 8.38138ZM0.96875 8.28119V14.6796C0.96875 14.9908 1.22012 15.2421 1.53125 15.2421H2.67383V7.71869H1.53125C1.22012 7.71869 0.96875 7.97006 0.96875 8.28119Z" fill="black"/>
</svg>
