<svg width="64" height="61" viewBox="0 0 64 61" fill="none" xmlns="http://www.w3.org/2000/svg">
<path d="M33.0685 24.046L51.7045 30.7516V58.1061C51.7045 58.6375 51.495 59.1471 51.1221 59.5229C50.7491 59.8986 50.2433 60.1097 49.7159 60.1097H41.7614C41.2339 60.1097 40.7281 59.8986 40.3552 59.5229C39.9822 59.1471 39.7727 58.6375 39.7727 58.1061V44.0814H19.8864V58.1061C19.8864 58.6375 19.6768 59.1471 19.3039 59.5229C18.931 59.8986 18.4251 60.1097 17.8977 60.1097H9.94318C9.41576 60.1097 8.90995 59.8986 8.537 59.5229C8.16406 59.1471 7.95455 58.6375 7.95455 58.1061V31.3201C3.33594 29.6609 0 25.2557 0 20.0389C0 18.9762 0.419033 17.957 1.16492 17.2055C1.9108 16.454 2.92243 16.0319 3.97727 16.0319C5.03211 16.0319 6.04375 16.454 6.78963 17.2055C7.53551 17.957 7.95455 18.9762 7.95455 20.0389C7.95652 21.1011 8.37618 22.1191 9.12164 22.8702C9.8671 23.6212 10.8776 24.044 11.9318 24.046H33.0685ZM63.6364 10.0213V14.0283C63.6364 16.1538 62.7983 18.1922 61.3065 19.6952C59.8148 21.1981 57.7915 22.0425 55.6818 22.0425H51.7045V26.4978L35.7955 20.774V2.00712C35.7955 0.222716 37.9357 -0.671363 39.1898 0.590865L42.5804 4.01065H49.2461C50.6021 4.01065 52.198 5.0024 52.8033 6.22581L53.6932 8.01773H61.6477C62.1752 8.01773 62.681 8.22881 63.0539 8.60455C63.4269 8.98028 63.6364 9.48989 63.6364 10.0213ZM49.7159 10.0213C49.7159 9.625 49.5993 9.23764 49.3808 8.90816C49.1623 8.57868 48.8517 8.32188 48.4883 8.17024C48.1249 8.01859 47.7251 7.97892 47.3393 8.05622C46.9536 8.13353 46.5992 8.32435 46.3211 8.60455C46.043 8.88475 45.8536 9.24174 45.7769 9.63039C45.7001 10.019 45.7395 10.4219 45.89 10.788C46.0405 11.1541 46.2954 11.467 46.6224 11.6871C46.9495 11.9073 47.334 12.0248 47.7273 12.0248C48.2547 12.0248 48.7605 11.8137 49.1335 11.438C49.5064 11.0622 49.7159 10.5526 49.7159 10.0213Z" fill="#01B1B0"/>
</svg>
